<svg width="65" height="40" viewBox="0 0 65 40" fill="none" xmlns="http://www.w3.org/2000/svg">
<g style="mix-blend-mode:difference" clip-path="url(#clip0_159_1189)">
<path d="M43.2451 39.5566V40.0013H33.4793C30.2988 40.0013 27.5837 38.4347 26.6175 33.8614L25.5779 28.9417C24.4884 23.788 22.7657 21.027 19.1827 21.027H16.5122V20.5823H19.5826C29.7928 20.5849 28.8292 0.57522 19.0543 0.57522H16.5122V0.10083H23.5694C37.221 0.10083 39.8338 15.9044 29.2526 20.042C28.8711 20.1907 28.9091 20.7284 29.3038 20.8383C31.5272 21.4587 33.301 23.1973 34.0286 26.7067L35.0198 31.4817C36.3255 37.7702 39.2766 39.5553 43.2451 39.5553V39.5566Z" fill="white"/>
<path d="M17.9189 39.4558V39.9005H0V39.4558C2.86587 39.4558 4.63181 36.8111 4.63181 34.1987V5.70431C4.63181 3.0803 2.88161 0.47439 0.00655506 0.47439V0H9.21511C11.4635 0 13.2871 1.79803 13.2871 4.01487L13.2897 34.1987C13.2897 36.8111 15.0557 39.4558 17.9189 39.4558Z" fill="white"/>
<path d="M56.7786 31.4804C57.9664 37.7909 61.0329 39.5566 65 39.5566V40.0013H55.2356C52.0537 40.0013 49.2521 38.4515 48.375 33.8614L47.0444 26.9019C46.0034 21.4548 44.0395 18.9704 40.0724 18.9704V18.5258H48.6346C51.8164 18.5258 54.6312 20.073 55.4951 24.6657L56.7773 31.4804H56.7786ZM43.8717 15.1805H42.9697L46.4111 10.3694C47.1283 9.3663 52.5952 0.754894 48.9938 0.57522V0.10083H59.2945V0.57522C55.0258 0.57522 49.7175 7.12491 47.3629 10.3694L43.8704 15.1805H43.8717Z" fill="white"/>
</g>
<defs>
<clipPath id="clip0_159_1189">
<rect width="65" height="40" fill="white"/>
</clipPath>
</defs>
</svg>
