<svg width="63" height="40" viewBox="0 0 63 40" fill="none" xmlns="http://www.w3.org/2000/svg">
<g style="mix-blend-mode:difference">
<path d="M62.9127 39.1452C60.7434 39.1452 59.1553 38.6476 57.9152 37.5976C56.4572 36.3626 55.4824 34.3285 54.9358 31.3803L54.9291 31.3448L53.678 24.603C52.9144 20.4865 50.4942 18.2192 46.8635 18.2192H38.3789V19.0336H38.4668C42.2166 19.0336 44.1721 21.3068 45.2179 26.8584L46.5222 33.7811C47.0536 36.6 48.667 39.9604 53.3367 39.9604H62.9997V39.146H62.9119L62.9127 39.1452Z" fill="#CDFF67"/>
<path d="M45.885 10.4244C47.0711 8.76697 48.7724 6.37382 50.8378 4.3853C53.3281 1.98792 55.5083 0.85681 57.3195 0.85681H57.3634V0.0424805H47.1741V0.855122L47.2155 0.857656C47.7072 0.882998 48.0459 0.991969 48.2208 1.35098C49.1508 3.26179 45.3816 9.33548 44.6492 10.3737L41.2246 15.2292H42.4478L45.8859 10.4252L45.885 10.4244Z" fill="#CDFF67"/>
<path d="M37.5536 37.6425C36.1285 36.3678 35.141 34.3058 34.5337 31.3399L33.5614 26.5916C32.905 23.3867 31.3557 21.41 28.9465 20.6979C28.6331 20.6049 28.6086 20.1691 28.9111 20.0466C33.8697 18.0386 35.6622 13.4736 35.1875 9.56839C34.6105 4.8277 30.6799 0 23.1989 0H17.0703V0.81433H18.7716C21.8608 0.81433 23.6551 2.76315 24.6155 4.42729C26.7316 8.09263 26.8321 13.6578 24.8462 17.0976C23.6103 19.2381 21.6894 20.3693 19.2869 20.3693H17.9683L17.97 21.1827H18.8992C22.132 21.1827 23.9169 23.3495 25.0641 28.8564L26.0837 33.7491C26.9394 37.8579 29.2388 39.9411 32.9168 39.9411H42.6009V39.207H42.4937C40.2864 39.207 38.7624 38.7247 37.5528 37.6425H37.5536Z" fill="#CDFF67"/>
<path d="M13.2075 34.1005L13.205 0.570201C12.982 0.347189 12.8578 0.223012 12.6348 0H0.00591381V0.821932H0.0937664C2.98363 0.821932 4.54218 3.36714 4.54218 5.76114V34.0997C4.54218 37.3063 2.24701 39.0448 0.0878539 39.0448H0V39.8591H17.748V39.0448H17.6602C14.7695 39.0448 13.2092 36.4928 13.2084 34.0997L13.2075 34.1005Z" fill="#CDFF67"/>
</g>
</svg>
